<svg width="1366" height="1186" viewBox="0 0 1366 1186" fill="none" xmlns="http://www.w3.org/2000/svg">
    <path d="M-2 1141V45.63L37 33.378L241.5 15H387H718H1038.5H1282H1366V995.521L271 1089.08L-2 1141Z" fill="#F4F4F4"/>
    <path d="M871.5 989C504.415 1017.03 77.7158 1112.69 -135.301 1170.32C-17.1511 1146.55 200.094 1108.87 487.434 1075C851.199 1032.12 1230.05 1057.13 1374 1075V877C1374 916 1277.5 958 871.5 989Z" fill="#A6E34F"/>
    <path d="M-269.692 168.501C-15.4978 49.0266 944.684 16.5906 1393 15.3069C400.478 -29.1966 -173.884 33.8498 -337 70.9359L-337 216L-269.692 168.501Z" fill="#A6E34F"/>
</svg>
