<svg width="1366" height="1407" viewBox="0 0 1366 1407" fill="none" xmlns="http://www.w3.org/2000/svg">
<path d="M-52.1316 305.195V346.184V998L-52.1317 1170L-52.1317 1391C-52.1316 1414 -51.9135 1408.35 532 1391C1104 1374 1254 1391 1372 1391V1215.79V46L1367 1.5C1370 46 1294.5 115 1254 135.5C1235.2 149.967 1159.89 169.369 1120.06 178.611C1020.49 194.364 944.61 187.854 919.117 182.63H472.233L160.314 234.067L-52.1316 305.195Z" fill="#F4F4F4"/>
<path d="M861.164 162.078C485.675 111.456 21.1808 228.261 -164.13 292.992L-155.663 421.778C23.4623 342.54 476.214 171.086 863.324 194.938C1248.88 218.695 1361.25 77.0421 1367.91 0.388183C1355.45 75.3771 1236.65 212.7 861.164 162.078Z" fill="#A6E34F"/>
</svg>

