<svg width="1366" height="1262" viewBox="0 0 1366 1262" fill="none" xmlns="http://www.w3.org/2000/svg">
<path d="M-52.1317 305.195V346.184L-52.1317 1262H1388L1372 46L1367 1.5C1370 46 1294.5 115 1254 135.5C1235.2 149.967 1159.89 169.369 1120.07 178.611C1020.49 194.364 944.611 187.854 919.117 182.63H472.233L160.313 234.067L-52.1317 305.195Z" fill="#F4F4F4"/>
<path d="M861.164 162.078C485.675 111.456 21.1808 228.261 -164.13 292.992L-155.663 421.778C23.4623 342.54 476.214 171.086 863.324 194.938C1248.88 218.695 1361.25 77.0421 1367.91 0.388183C1355.45 75.3771 1236.65 212.7 861.164 162.078Z" fill="#A6E34F"/>
</svg>
