<svg display="none" xmlns="http://www.w3.org/2000/svg">
        <symbol id="snailmail" viewBox="0 0 85 85">
            <g>
                <path
                    d="M63.0672 62.9642C60.0596 64.1909 56.8552 64.8391 53.7999 64.8391C52.9046 64.8391 52.1786 65.5651 52.1786 66.4604C52.1786 67.3559 52.9046 68.0816 53.7999 68.0816C57.271 68.0816 60.8988 67.3505 64.2916 65.9668C65.1208 65.6286 65.5186 64.6824 65.1806 63.8535C64.8426 63.0245 63.8966 62.626 63.0672 62.9642Z"
                    fill="#305C2D" />
                <path
                    d="M67.1313 60.8606L67.1013 60.8802C66.3483 61.3646 66.1306 62.3679 66.6153 63.1208C66.9251 63.6024 67.4471 63.8648 67.9803 63.8648C68.2807 63.8648 68.5846 63.7812 68.856 63.6068C68.8868 63.5868 68.9178 63.5669 68.9489 63.5457C69.6902 63.0438 69.8847 62.0358 69.3827 61.2943C68.8806 60.553 67.873 60.3592 67.1313 60.8606Z"
                    fill="#305C2D" />
                <path
                    d="M77.5415 42.4531C78.9992 39.2255 80.4157 36.8538 82.1622 34.6929C82.7251 33.9966 82.6168 32.9757 81.9205 32.4128C81.2244 31.8505 80.2038 31.9584 79.6405 32.6547C77.7427 35.0025 76.2133 37.5416 74.6632 40.9474C73.7703 40.6261 72.8614 40.4246 71.9474 40.3411C72.6857 36.0481 73.7186 33.0256 75.5378 29.6891C75.9666 28.9031 75.6767 27.9183 74.8907 27.4897C74.1053 27.0613 73.1198 27.3508 72.6913 28.1369C70.6058 31.9617 69.4308 35.5248 68.6266 40.5539C66.4788 41.0267 64.3826 42.1457 62.4912 43.8931C61.5721 44.742 60.5561 45.5229 59.4415 46.2378C61.1102 40.2245 60.1955 34.0692 56.7354 28.534C54.1212 24.3524 50.223 20.7935 45.462 18.2428C40.661 15.6708 35.3198 14.3115 30.0157 14.3115C22.0409 14.3115 14.5331 17.0165 8.87519 21.9281C3.15192 26.8957 3.05176e-05 33.5208 3.05176e-05 40.5813C3.05176e-05 48.044 2.53331 54.461 7.32592 59.1383C9.17007 60.9382 11.2874 62.4184 13.5914 63.5433C10.3937 65.7154 7.81273 68.4333 5.46441 72.0652C5.14198 72.5639 5.11799 73.1992 5.40184 73.7207C5.68569 74.2422 6.23184 74.5668 6.82581 74.5668H53.7999C60.2656 74.5668 66.8831 72.5957 72.4333 69.016C77.9328 65.4692 81.6771 60.6978 82.7058 55.9256C83.8174 50.7683 81.7108 45.3989 77.5415 42.4531ZM3.24254 40.5813C3.24254 27.884 15.2529 17.5539 30.0157 17.5539C39.6048 17.5539 49.2377 22.6571 53.9857 30.2524C57.5318 35.9251 57.9535 42.3623 55.1947 48.4433C52.3732 49.6241 49.0984 50.5214 45.338 51.147C45.6824 49.9902 45.9465 48.7816 46.126 47.5245L46.2618 47.488C47.3037 47.209 48.0659 46.4069 48.35 45.4406C48.3618 45.4035 48.3735 45.3665 48.3825 45.329C48.5025 44.8524 48.5077 44.3403 48.372 43.8328L43.4309 25.3933C43.0822 24.0906 41.8959 23.1812 40.5463 23.1812C40.2863 23.1812 40.0268 23.2154 39.7757 23.2828L10.0085 31.2586C9.23994 31.4646 8.59653 31.9586 8.19742 32.6506C7.7983 33.3419 7.6918 34.1459 7.89768 34.914L12.8391 53.3536C13.0028 53.9651 13.3525 54.4879 13.8153 54.8726C13.8382 54.8925 13.8612 54.9121 13.8855 54.9308C13.9103 54.9504 13.9362 54.9687 13.9617 54.9875C13.9705 54.9935 13.9782 55.0002 13.987 55.0062C13.9891 55.0075 13.991 55.0084 13.9931 55.0096C14.4868 55.361 15.0866 55.5659 15.7242 55.5659C15.9839 55.5659 16.2427 55.532 16.4943 55.4646L42.6755 48.4492C42.3759 49.9067 41.9479 51.2452 41.4104 52.468C41.3956 52.5003 41.3807 52.5324 41.3681 52.5653C38.0293 60.0442 30.5831 63.1661 23.5315 62.8083C21.5894 62.7102 19.6179 62.3473 17.7051 61.7162C17.6952 61.7129 17.6857 61.7095 17.6756 61.7066C9.9777 59.1549 3.24254 52.238 3.24254 40.5813ZM27.9164 41.8751C27.9109 41.8737 27.9054 41.8721 27.9 41.8706L12.9239 37.8644C12.346 37.7086 11.8896 37.2515 11.7335 36.6713C11.7209 36.6241 11.7051 36.5782 11.6883 36.5327L11.0967 34.3244L40.3656 26.4822L40.9954 28.8326C41.1646 29.4652 40.962 30.125 40.4661 30.5542L29.5568 41.4481C29.1287 41.8748 28.5006 42.0389 27.9164 41.8751ZM19.9667 43.1013L15.3174 50.0756L12.9464 41.2272L19.9667 43.1013ZM23.2715 43.9869L27.0535 45.0006C27.4866 45.1206 27.9282 45.1793 28.3666 45.1793C29.3277 45.1793 30.2731 44.8977 31.08 44.3669L43.1845 44.956L18.1558 51.6623L23.2715 43.9869ZM31.08 44.3669C31.3533 44.1871 31.6107 43.979 31.8474 43.7433L34.7885 40.8025L43.1848 44.9559L31.08 44.3669ZM40.726 40.1163C40.6133 40.0605 40.5065 40.0115 40.4021 39.9674L37.2093 38.3838C37.2581 38.3386 37.3067 38.2928 37.3539 38.246L42.2154 33.3845L44.524 42.0006L40.726 40.1163ZM79.5362 55.2424C78.6874 59.1798 75.4581 63.2071 70.676 66.2912C65.7163 69.49 59.5652 71.3244 53.8001 71.3244H9.97251C12.0811 68.6616 14.4495 66.65 17.3692 65.0171C19.2966 65.593 21.3095 65.9427 23.3683 66.0469C23.7917 66.0682 24.2125 66.0789 24.6327 66.0789C29.7304 66.0785 34.5444 64.5092 38.3018 61.6004C40.7135 59.7331 42.6196 57.383 43.9764 54.6341C48.9694 53.9445 53.2453 52.8251 56.8646 51.2558C56.9909 51.2172 57.1125 51.1642 57.2261 51.0962C60.1389 49.7929 62.6177 48.1906 64.6914 46.2749C66.3762 44.7185 68.2147 43.8183 70.0653 43.5963C70.164 43.5953 70.2615 43.5859 70.3563 43.5674C71.908 43.4411 73.4631 43.7909 74.9382 44.6326C78.5477 46.6932 80.4384 51.0559 79.5362 55.2424Z"
                    fill="#305C2D" />
                <path
                    d="M12.7691 15.1875C13.0151 15.1875 13.2651 15.1314 13.4998 15.0127C16.655 13.4158 20.0397 12.2844 23.5599 11.6502C24.4413 11.4914 25.0268 10.6482 24.8679 9.76716C24.7091 8.88577 23.8653 8.30072 22.9849 8.4591C19.1552 9.14936 15.4714 10.3809 12.0357 12.1195C11.2368 12.5238 10.917 13.4992 11.3213 14.2981C11.6067 14.8623 12.1769 15.1875 12.7691 15.1875Z"
                    fill="#305C2D" />
                <path
                    d="M8.44676 17.5938C9.34215 17.5938 10.068 16.868 10.068 15.9726C10.068 15.0772 9.34215 14.3513 8.44676 14.3513C7.55136 14.3513 6.8255 15.0772 6.8255 15.9726C6.8255 16.868 7.55136 17.5938 8.44676 17.5938Z"
                    fill="#305C2D" />
            </g>
            <g>
                <path
                    d="M65.0672 64.9642C62.0596 66.1909 58.8552 66.8391 55.7999 66.8391C54.9046 66.8391 54.1786 67.5651 54.1786 68.4604C54.1786 69.3559 54.9046 70.0816 55.7999 70.0816C59.271 70.0816 62.8988 69.3505 66.2916 67.9668C67.1208 67.6286 67.5186 66.6824 67.1806 65.8535C66.8426 65.0245 65.8966 64.626 65.0672 64.9642Z"
                    fill="#A6E34F" />
                <path
                    d="M69.1313 62.8606L69.1013 62.8802C68.3483 63.3646 68.1306 64.3679 68.6153 65.1208C68.9251 65.6024 69.4471 65.8648 69.9803 65.8648C70.2807 65.8648 70.5846 65.7812 70.856 65.6068C70.8868 65.5868 70.9178 65.5669 70.9489 65.5457C71.6902 65.0438 71.8847 64.0358 71.3827 63.2943C70.8806 62.553 69.873 62.3592 69.1313 62.8606Z"
                    fill="#A6E34F" />
                <path
                    d="M79.5415 44.4531C80.9992 41.2255 82.4157 38.8538 84.1622 36.6929C84.7251 35.9966 84.6168 34.9757 83.9205 34.4128C83.2244 33.8505 82.2038 33.9584 81.6405 34.6547C79.7427 37.0025 78.2133 39.5416 76.6632 42.9474C75.7703 42.6261 74.8614 42.4246 73.9474 42.3411C74.6857 38.0481 75.7186 35.0256 77.5378 31.6891C77.9666 30.9031 77.6767 29.9183 76.8907 29.4897C76.1053 29.0613 75.1198 29.3508 74.6913 30.1369C72.6058 33.9617 71.4308 37.5248 70.6266 42.5539C68.4788 43.0267 66.3826 44.1457 64.4912 45.8931C63.5721 46.742 62.5561 47.5229 61.4415 48.2378C63.1102 42.2245 62.1955 36.0692 58.7354 30.534C56.1212 26.3524 52.223 22.7935 47.462 20.2428C42.661 17.6708 37.3198 16.3115 32.0157 16.3115C24.0409 16.3115 16.5331 19.0165 10.8752 23.9281C5.15192 28.8957 2.00003 35.5208 2.00003 42.5813C2.00003 50.044 4.53331 56.461 9.32592 61.1383C11.1701 62.9382 13.2874 64.4184 15.5914 65.5433C12.3937 67.7154 9.81273 70.4333 7.46441 74.0652C7.14198 74.5639 7.11799 75.1992 7.40184 75.7207C7.68569 76.2422 8.23184 76.5668 8.82581 76.5668H55.7999C62.2656 76.5668 68.8831 74.5957 74.4333 71.016C79.9328 67.4692 83.6771 62.6978 84.7058 57.9256C85.8174 52.7683 83.7108 47.3989 79.5415 44.4531ZM5.24254 42.5813C5.24254 29.884 17.2529 19.5539 32.0157 19.5539C41.6048 19.5539 51.2377 24.6571 55.9857 32.2524C59.5318 37.9251 59.9535 44.3623 57.1947 50.4433C54.3732 51.6241 51.0984 52.5214 47.338 53.147C47.6824 51.9902 47.9465 50.7816 48.126 49.5245L48.2618 49.488C49.3037 49.209 50.0659 48.4069 50.35 47.4406C50.3618 47.4035 50.3735 47.3665 50.3825 47.329C50.5025 46.8524 50.5077 46.3403 50.372 45.8328L45.4309 27.3933C45.0822 26.0906 43.8959 25.1812 42.5463 25.1812C42.2863 25.1812 42.0268 25.2154 41.7757 25.2828L12.0085 33.2586C11.2399 33.4646 10.5965 33.9586 10.1974 34.6506C9.7983 35.3419 9.6918 36.1459 9.89768 36.914L14.8391 55.3536C15.0028 55.9651 15.3525 56.4879 15.8153 56.8726C15.8382 56.8925 15.8612 56.9121 15.8855 56.9308C15.9103 56.9504 15.9362 56.9687 15.9617 56.9875C15.9705 56.9935 15.9782 57.0002 15.987 57.0062C15.9891 57.0075 15.991 57.0084 15.9931 57.0096C16.4868 57.361 17.0866 57.5659 17.7242 57.5659C17.9839 57.5659 18.2427 57.532 18.4943 57.4646L44.6755 50.4492C44.3759 51.9067 43.9479 53.2452 43.4104 54.468C43.3956 54.5003 43.3807 54.5324 43.3681 54.5653C40.0293 62.0442 32.5831 65.1661 25.5315 64.8083C23.5894 64.7102 21.6179 64.3473 19.7051 63.7162C19.6952 63.7129 19.6857 63.7095 19.6756 63.7066C11.9777 61.1549 5.24254 54.238 5.24254 42.5813ZM29.9164 43.8751C29.9109 43.8737 29.9054 43.8721 29.9 43.8706L14.9239 39.8644C14.346 39.7086 13.8896 39.2515 13.7335 38.6713C13.7209 38.6241 13.7051 38.5782 13.6883 38.5327L13.0967 36.3244L42.3656 28.4822L42.9954 30.8326C43.1646 31.4652 42.962 32.125 42.4661 32.5542L31.5568 43.4481C31.1287 43.8748 30.5006 44.0389 29.9164 43.8751ZM21.9667 45.1013L17.3174 52.0756L14.9464 43.2272L21.9667 45.1013ZM25.2715 45.9869L29.0535 47.0006C29.4866 47.1206 29.9282 47.1793 30.3666 47.1793C31.3277 47.1793 32.2731 46.8977 33.08 46.3669L45.1845 46.956L20.1558 53.6623L25.2715 45.9869ZM33.08 46.3669C33.3533 46.1871 33.6107 45.979 33.8474 45.7433L36.7885 42.8025L45.1848 46.9559L33.08 46.3669ZM42.726 42.1163C42.6133 42.0605 42.5065 42.0115 42.4021 41.9674L39.2093 40.3838C39.2581 40.3386 39.3067 40.2928 39.3539 40.246L44.2154 35.3845L46.524 44.0006L42.726 42.1163ZM81.5362 57.2424C80.6874 61.1798 77.4581 65.2071 72.676 68.2912C67.7163 71.49 61.5652 73.3244 55.8001 73.3244H11.9725C14.0811 70.6616 16.4495 68.65 19.3692 67.0171C21.2966 67.593 23.3095 67.9427 25.3683 68.0469C25.7917 68.0682 26.2125 68.0789 26.6327 68.0789C31.7304 68.0785 36.5444 66.5092 40.3018 63.6004C42.7135 61.7331 44.6196 59.383 45.9764 56.6341C50.9694 55.9445 55.2453 54.8251 58.8646 53.2558C58.9909 53.2172 59.1125 53.1642 59.2261 53.0962C62.1389 51.7929 64.6177 50.1906 66.6914 48.2749C68.3762 46.7185 70.2147 45.8183 72.0653 45.5963C72.164 45.5953 72.2615 45.5859 72.3563 45.5674C73.908 45.4411 75.4631 45.7909 76.9382 46.6326C80.5477 48.6932 82.4384 53.0559 81.5362 57.2424Z"
                    fill="#A6E34F" />
                <path
                    d="M14.7691 17.1875C15.0151 17.1875 15.2651 17.1314 15.4998 17.0127C18.655 15.4158 22.0397 14.2844 25.5599 13.6502C26.4413 13.4914 27.0268 12.6482 26.8679 11.7672C26.7091 10.8858 25.8653 10.3007 24.9849 10.4591C21.1552 11.1494 17.4714 12.3809 14.0357 14.1195C13.2368 14.5238 12.917 15.4992 13.3213 16.2981C13.6067 16.8623 14.1769 17.1875 14.7691 17.1875Z"
                    fill="#A6E34F" />
                <path
                    d="M10.4468 19.5938C11.3422 19.5938 12.068 18.868 12.068 17.9726C12.068 17.0772 11.3422 16.3513 10.4468 16.3513C9.55136 16.3513 8.8255 17.0772 8.8255 17.9726C8.8255 18.868 9.55136 19.5938 10.4468 19.5938Z"
                    fill="#A6E34F" />
            </g>
        </symbol>

        <symbol id="shell" viewBox="0 0 81 83">
            <g>
                <path
                    d="M78.355 33.0689C77.6841 31.0409 76.8511 29.0604 75.8786 27.1811C75.8774 27.1787 75.8761 27.1762 75.8749 27.1738C75.8739 27.1721 75.8732 27.1702 75.8722 27.1685C72.4143 20.4955 67.1602 14.9783 60.6779 11.2113C60.6773 11.211 60.6766 11.2107 60.6762 11.2102C60.6693 11.2063 60.6626 11.202 60.6555 11.198C53.5038 7.04679 45.4135 5.2871 37.2592 6.10675C34.3428 6.40053 31.4439 7.03097 28.6434 7.98066C23.0115 9.88907 18.0726 12.6757 13.9637 16.2637C8.66142 20.8938 4.79424 26.7671 2.46971 33.7203C0.539245 39.4947 -0.26591 45.8551 0.0765896 52.6246C0.179246 54.6418 0.386433 56.7111 0.692838 58.7755C1.09878 61.5042 2.70877 63.8199 5.11017 65.1287C7.5147 66.4395 10.3149 66.5246 12.7925 65.363L26.4139 58.9775C28.1225 63.1859 30.8714 66.844 34.4361 69.6341C34.4417 69.6386 34.4473 69.6432 34.4531 69.6478C34.454 69.6486 34.455 69.6494 34.4559 69.65C38.9865 73.1919 44.4993 75.0898 50.1584 75.0898C50.7993 75.0898 51.4426 75.0655 52.086 75.0164C54.2016 74.8565 56.304 74.4263 58.3338 73.738C63.1841 72.0951 67.6094 69.264 71.1308 65.5513C75.3696 61.0871 78.2335 55.5127 79.4127 49.4308C80.4644 44.002 80.0988 38.3445 78.355 33.0689ZM72.4079 27.3833L58.1696 36.8187C56.7357 34.8017 54.8974 33.1371 52.7516 31.9126L60.5618 14.853C65.4621 18.0152 69.5171 22.3032 72.4079 27.3833ZM29.6395 10.9927C32.2182 10.1181 34.8865 9.53786 37.57 9.26765C44.5954 8.56095 51.5709 9.93779 57.8354 13.2551L49.8909 30.6084C47.3999 29.7367 44.7799 29.4709 42.1745 29.8215L40.431 17.5617C40.3076 16.6934 39.5126 16.0901 38.6548 16.2159C37.7973 16.3409 37.2021 17.146 37.3256 18.0142L39.1046 30.5249C39.0609 30.5393 39.0165 30.553 38.9731 30.5678C36.5779 31.3801 34.3962 32.5916 32.4667 34.1754L17.273 17.6215C20.8111 14.8052 24.9623 12.5774 29.6395 10.9927ZM11.4742 62.48C9.90157 63.217 8.12392 63.1632 6.59751 62.3311C5.07424 61.5007 4.05299 60.0321 3.79564 58.3023C3.57877 56.8403 3.41408 55.3767 3.30424 53.9335L24.7306 51.2306C24.7769 52.8222 24.9989 54.4009 25.4011 55.9511L11.4742 62.48ZM24.8817 48.0107L3.15221 50.7518C3.04737 45.6431 3.64861 40.8109 4.94439 36.3434L25.5486 44.7263C25.2394 45.8017 25.0183 46.9 24.8817 48.0107ZM5.9458 33.327C7.93814 28.0253 10.9409 23.4515 14.8927 19.695L30.1856 36.357C28.7473 37.9571 27.5493 39.7848 26.6509 41.751L5.9458 33.327ZM28.7864 56.3319C28.7823 56.3191 28.7781 56.3063 28.7736 56.2934C28.2243 54.6274 27.9208 52.9171 27.8654 51.1893L37.3037 52.1873C37.8276 53.6692 38.6395 55.0228 39.6846 56.1643L34.9011 65.8758C32.107 63.28 30.0079 60.0161 28.7864 56.3319ZM37.4109 67.8984L42.1809 58.2147C43.9709 59.3015 46.0301 59.8793 48.1109 59.8791C48.3202 59.8791 48.5299 59.8721 48.7395 59.8604L50.2038 71.9118C45.6446 71.9209 41.1923 70.5252 37.4109 67.8984ZM49.7823 56.528C47.2574 57.0634 44.5832 56.3564 42.627 54.6347C41.5135 53.6583 40.6746 52.3861 40.2006 50.9558C40.1367 50.7628 40.0809 50.5625 40.0346 50.3594C39.2948 47.1238 41.0862 43.8878 44.2009 42.8324C46.6885 41.9898 49.3899 43.354 50.2226 45.8725C50.4977 46.7043 51.3871 47.1528 52.208 46.8744C53.0296 46.5959 53.4727 45.6957 53.1977 44.8641C51.816 40.6855 47.3338 38.4232 43.2057 39.8199C39.2396 41.1639 36.7114 44.8736 36.7314 48.9332L28.0467 48.0148C28.2272 46.7707 28.5345 45.547 28.9708 44.3619C29.9173 41.7826 31.459 39.4235 33.4293 37.5398C35.3018 35.7494 37.5021 34.4173 39.969 33.5806C40.3745 33.4433 40.7926 33.3232 41.2124 33.2234C44.1937 32.5129 47.2493 32.8106 50.0502 34.0843C52.7157 35.2942 54.8974 37.2771 56.3594 39.8176C56.8337 40.6423 57.2285 41.5268 57.533 42.4459C57.9307 43.647 58.1188 44.8922 58.0921 46.148C58.0459 48.3439 57.351 50.4581 56.0838 52.2604C54.7552 54.1446 52.9029 55.5309 50.7293 56.268C50.4137 56.3741 50.0952 56.4618 49.7823 56.528ZM57.3377 70.7253C56.0309 71.1685 54.6905 71.4885 53.3371 71.6837L51.8256 59.2439C54.0377 58.4747 55.9871 57.184 57.5471 55.4651L67.6968 64.5135C64.7376 67.2876 61.1871 69.4214 57.3377 70.7253ZM69.8799 62.227L59.4038 52.8875C60.2555 51.3751 60.8196 49.7293 61.0741 48.018L75.9746 50.426C74.8729 54.7919 72.7921 58.8217 69.8799 62.227ZM76.5816 47.3075L61.1871 44.8196C61.0985 43.6726 60.873 42.5391 60.5077 41.4355C60.2955 40.7945 60.0457 40.1675 59.7633 39.5589L73.8597 30.2173C74.435 31.4708 74.9452 32.7628 75.38 34.0772C76.7902 38.3442 77.1971 42.8867 76.5816 47.3075Z"
                    fill="#305C2D" />
                <path
                    d="M38.0678 14.4524C38.963 14.4524 39.6887 13.7176 39.6887 12.8112C39.6887 11.9048 38.963 11.17 38.0678 11.17C37.1725 11.17 36.4468 11.9048 36.4468 12.8112C36.4468 13.7176 37.1725 14.4524 38.0678 14.4524Z"
                    fill="#305C2D" />
            </g>
            <g>
                <path
                    d="M79.355 35.0689C78.6841 33.0409 77.8511 31.0604 76.8786 29.1811C76.8774 29.1787 76.8761 29.1762 76.8749 29.1738C76.8739 29.1721 76.8732 29.1702 76.8722 29.1685C73.4143 22.4955 68.1602 16.9783 61.6779 13.2113C61.6773 13.211 61.6766 13.2107 61.6762 13.2102C61.6693 13.2063 61.6626 13.202 61.6555 13.198C54.5038 9.04679 46.4135 7.2871 38.2592 8.10675C35.3428 8.40053 32.4439 9.03097 29.6434 9.98066C24.0115 11.8891 19.0726 14.6757 14.9637 18.2637C9.66142 22.8938 5.79424 28.7671 3.46971 35.7203C1.53925 41.4947 0.73409 47.8551 1.07659 54.6246C1.17925 56.6418 1.38643 58.7111 1.69284 60.7755C2.09878 63.5042 3.70877 65.8199 6.11017 67.1287C8.5147 68.4395 11.3149 68.5246 13.7925 67.363L27.4139 60.9775C29.1225 65.1859 31.8714 68.844 35.4361 71.6341C35.4417 71.6386 35.4473 71.6432 35.4531 71.6478C35.454 71.6486 35.455 71.6494 35.4559 71.65C39.9865 75.1919 45.4993 77.0898 51.1584 77.0898C51.7993 77.0898 52.4426 77.0655 53.086 77.0164C55.2016 76.8565 57.304 76.4263 59.3338 75.738C64.1841 74.0951 68.6094 71.264 72.1308 67.5513C76.3696 63.0871 79.2335 57.5127 80.4127 51.4308C81.4644 46.002 81.0988 40.3445 79.355 35.0689ZM73.4079 29.3833L59.1696 38.8187C57.7357 36.8017 55.8974 35.1371 53.7516 33.9126L61.5618 16.853C66.4621 20.0152 70.5171 24.3032 73.4079 29.3833ZM30.6395 12.9927C33.2182 12.1181 35.8865 11.5379 38.57 11.2676C45.5954 10.561 52.5709 11.9378 58.8354 15.2551L50.8909 32.6084C48.3999 31.7367 45.7799 31.4709 43.1745 31.8215L41.431 19.5617C41.3076 18.6934 40.5126 18.0901 39.6548 18.2159C38.7973 18.3409 38.2021 19.146 38.3256 20.0142L40.1046 32.5249C40.0609 32.5393 40.0165 32.553 39.9731 32.5678C37.5779 33.3801 35.3962 34.5916 33.4667 36.1754L18.273 19.6215C21.8111 16.8052 25.9623 14.5774 30.6395 12.9927ZM12.4742 64.48C10.9016 65.217 9.12392 65.1632 7.59751 64.3311C6.07424 63.5007 5.05299 62.0321 4.79564 60.3023C4.57877 58.8403 4.41408 57.3767 4.30424 55.9335L25.7306 53.2306C25.7769 54.8222 25.9989 56.4009 26.4011 57.9511L12.4742 64.48ZM25.8817 50.0107L4.15221 52.7518C4.04737 47.6431 4.64861 42.8109 5.94439 38.3434L26.5486 46.7263C26.2394 47.8017 26.0183 48.9 25.8817 50.0107ZM6.9458 35.327C8.93814 30.0253 11.9409 25.4515 15.8927 21.695L31.1856 38.357C29.7473 39.9571 28.5493 41.7848 27.6509 43.751L6.9458 35.327ZM29.7864 58.3319C29.7823 58.3191 29.7781 58.3063 29.7736 58.2934C29.2243 56.6274 28.9208 54.9171 28.8654 53.1893L38.3037 54.1873C38.8276 55.6692 39.6395 57.0228 40.6846 58.1643L35.9011 67.8758C33.107 65.28 31.0079 62.0161 29.7864 58.3319ZM38.4109 69.8984L43.1809 60.2147C44.9709 61.3015 47.0301 61.8793 49.1109 61.8791C49.3202 61.8791 49.5299 61.8721 49.7395 61.8604L51.2038 73.9118C46.6446 73.9209 42.1923 72.5252 38.4109 69.8984ZM50.7823 58.528C48.2574 59.0634 45.5832 58.3564 43.627 56.6347C42.5135 55.6583 41.6746 54.3861 41.2006 52.9558C41.1367 52.7628 41.0809 52.5625 41.0346 52.3594C40.2948 49.1238 42.0862 45.8878 45.2009 44.8324C47.6885 43.9898 50.3899 45.354 51.2226 47.8725C51.4977 48.7043 52.3871 49.1528 53.208 48.8744C54.0296 48.5959 54.4727 47.6957 54.1977 46.8641C52.816 42.6855 48.3338 40.4232 44.2057 41.8199C40.2396 43.1639 37.7114 46.8736 37.7314 50.9332L29.0467 50.0148C29.2272 48.7707 29.5345 47.547 29.9708 46.3619C30.9173 43.7826 32.459 41.4235 34.4293 39.5398C36.3018 37.7494 38.5021 36.4173 40.969 35.5806C41.3745 35.4433 41.7926 35.3232 42.2124 35.2234C45.1937 34.5129 48.2493 34.8106 51.0502 36.0843C53.7157 37.2942 55.8974 39.2771 57.3594 41.8176C57.8337 42.6423 58.2285 43.5268 58.533 44.4459C58.9307 45.647 59.1188 46.8922 59.0921 48.148C59.0459 50.3439 58.351 52.4581 57.0838 54.2604C55.7552 56.1446 53.9029 57.5309 51.7293 58.268C51.4137 58.3741 51.0952 58.4618 50.7823 58.528ZM58.3377 72.7253C57.0309 73.1685 55.6905 73.4885 54.3371 73.6837L52.8256 61.2439C55.0377 60.4747 56.9871 59.184 58.5471 57.4651L68.6968 66.5135C65.7376 69.2876 62.1871 71.4214 58.3377 72.7253ZM70.8799 64.227L60.4038 54.8875C61.2555 53.3751 61.8196 51.7293 62.0741 50.018L76.9746 52.426C75.8729 56.7919 73.7921 60.8217 70.8799 64.227ZM77.5816 49.3075L62.1871 46.8196C62.0985 45.6726 61.873 44.5391 61.5077 43.4355C61.2955 42.7945 61.0457 42.1675 60.7633 41.5589L74.8597 32.2173C75.435 33.4708 75.9452 34.7628 76.38 36.0772C77.7902 40.3442 78.1971 44.8867 77.5816 49.3075Z"
                    fill="#A6E34F" />
                <path
                    d="M39.0678 16.4524C39.963 16.4524 40.6887 15.7176 40.6887 14.8112C40.6887 13.9048 39.963 13.17 39.0678 13.17C38.1725 13.17 37.4468 13.9048 37.4468 14.8112C37.4468 15.7176 38.1725 16.4524 39.0678 16.4524Z"
                    fill="#A6E34F" />
            </g>
        </symbol>

        <symbol id="leaves" viewBox="0 0 72 70">
            <g>
                <path
                    d="M69.2396 9.63014C69.1591 9.14867 68.7696 8.77028 68.274 8.69211C67.9521 8.64227 60.2808 7.46067 50.508 8.19024C48.9709 8.30467 47.4724 8.4644 46.0088 8.66266C29.1828 -3.37085 2.86969 0.586321 1.74897 0.761918C1.25333 0.840087 0.863819 1.21847 0.783351 1.69995C0.602589 2.78865 -3.47213 28.3477 8.91647 44.6952C8.71355 46.117 8.54911 47.5727 8.43016 49.0659C7.68029 58.5583 8.89547 66.0116 8.94679 66.3242C9.02726 66.8057 9.4156 67.1841 9.91241 67.2623C10.1585 67.3008 14.7102 68.0009 21.2153 68.0009C23.2083 68.0009 25.3868 67.9352 27.6784 67.7641C40.7119 66.7933 51.1681 62.8146 57.9146 56.2608C64.6622 49.7071 68.7568 39.5508 69.7562 26.8885C70.5061 17.3961 69.2909 9.94282 69.2396 9.63014ZM49.0059 10.6248C56.1023 9.93942 62.3438 10.3348 65.5707 10.6543L49.0059 26.7458V10.6248ZM36.1777 6.0389C38.4319 6.89423 40.6244 7.92855 42.6839 9.18945C42.5335 9.21664 42.3947 9.25402 42.2454 9.28235C41.4524 9.43529 40.6711 9.60069 39.9037 9.77968C39.3906 9.8975 38.8868 10.0244 38.3865 10.1547C37.8267 10.3008 37.2704 10.4515 36.7246 10.6124C36.545 10.6645 36.3549 10.7086 36.1777 10.763V6.0389ZM36.1777 13.1613C36.2896 13.1262 36.4016 13.0934 36.5135 13.0583C36.8937 12.9393 37.2751 12.8203 37.6646 12.7082C38.4844 12.4737 39.3089 12.2641 40.1323 12.0692C40.4576 11.9922 40.7807 11.9129 41.1107 11.8415C41.9679 11.6546 42.8227 11.4915 43.6752 11.3431C44.0099 11.2842 44.3446 11.2264 44.684 11.172C45.351 11.0666 46.0135 10.9726 46.6735 10.8876V29.0104L36.1777 39.2064V13.1613ZM23.3483 2.94499C26.7886 3.38795 30.3641 4.10619 33.8441 5.21982V11.5515C33.0196 11.8483 32.2172 12.1644 31.4324 12.4975C31.2901 12.5575 31.1467 12.6176 31.0056 12.6787C29.388 13.3845 27.8615 14.1662 26.427 15.0261C26.0982 15.2221 25.7751 15.4237 25.4556 15.6288C25.1244 15.8418 24.7885 16.0491 24.4678 16.2711C24.0841 16.5351 23.7156 16.8092 23.3483 17.0857V2.94499ZM23.3483 20.0414H23.3494C23.5232 19.8929 23.6853 19.7343 23.8637 19.5893C24.0235 19.4591 24.1833 19.3276 24.3454 19.2008C24.9809 18.7034 25.6433 18.2276 26.3302 17.7711C26.553 17.6238 26.7804 17.4844 27.0066 17.3428C27.5524 16.9984 28.1157 16.6688 28.6918 16.3493C29.0895 16.1295 29.4907 15.9188 29.8965 15.7137C30.3758 15.4702 30.8656 15.2368 31.3647 15.0091C31.9175 14.7587 32.4761 14.5197 33.0383 14.2931C33.303 14.1866 33.5747 14.0846 33.8441 13.9816V41.4721L23.3483 51.6681V20.0414ZM21.017 2.68442V18.8156L4.4499 2.72181C7.67679 2.40007 13.923 2.00129 21.017 2.68442ZM2.80205 4.32484L19.368 20.4175H2.76707C2.06384 13.5273 2.47318 7.46067 2.80205 4.32484ZM3.03529 22.6832H17.586C17.3026 23.0401 17.0193 23.3981 16.7475 23.7708C16.5201 24.0824 16.3055 24.4086 16.0863 24.7304C15.8764 25.0408 15.6688 25.3546 15.4659 25.6741C14.5807 27.0664 13.776 28.5505 13.0495 30.1218C12.9865 30.2588 12.9247 30.3982 12.8629 30.5364C12.5212 31.2988 12.1947 32.0783 11.8891 32.8803H5.37587C4.22949 29.4987 3.49011 26.0253 3.03529 22.6832ZM10.0663 38.7645C9.88208 39.51 9.71182 40.269 9.55438 41.0394C9.52522 41.1844 9.48674 41.3192 9.45875 41.4653C8.16193 39.4647 7.09835 37.3348 6.21787 35.145H11.0786C11.0226 35.3183 10.9771 35.5018 10.9235 35.6763C10.7579 36.2054 10.604 36.7457 10.4524 37.2907C10.3194 37.7767 10.1888 38.2661 10.0663 38.7645ZM11.453 43.6699C11.5673 42.9709 11.6897 42.2799 11.825 41.6036C11.9241 41.1096 12.0314 40.6145 12.1445 40.1195C12.2996 39.4363 12.4641 38.7634 12.6425 38.1041C12.7661 37.6441 12.9002 37.1842 13.0378 36.7265C13.2361 36.066 13.4437 35.4146 13.6653 34.7802C13.8122 34.3588 13.9696 33.9419 14.1294 33.5238C14.3696 32.8996 14.6169 32.2833 14.8804 31.6863C15.0472 31.3056 15.2268 30.9306 15.4064 30.5545C15.6735 29.9983 15.9487 29.4522 16.2367 28.9209C16.4128 28.5946 16.5948 28.2706 16.7814 27.9489C17.1312 27.3507 17.4939 26.7684 17.8718 26.2042C18.007 26.0003 18.14 25.7953 18.2811 25.5948C18.7557 24.9196 19.2514 24.2704 19.768 23.6462C19.8951 23.4921 20.0281 23.3403 20.1587 23.1885C20.4339 22.869 20.729 22.5722 21.017 22.2675V53.935L10.9655 63.6993C10.5736 59.9789 10.0687 52.1292 11.453 43.6699ZM12.6157 65.3001L22.666 55.5369H55.3011C42.2314 67.1286 19.8438 66.0161 12.6157 65.3001ZM57.5962 53.2711H24.9984L35.4943 43.0752H63.8039C62.3263 46.7503 60.317 50.2509 57.5962 53.2711ZM64.6424 40.8094H37.8267L48.3225 30.6134H66.9842C66.5282 33.9554 65.79 37.4277 64.6424 40.8094ZM67.2559 28.3477H50.6549L67.2209 12.255C67.5509 15.3886 67.9614 21.4529 67.2559 28.3477Z"
                    fill="#305C2D" />
                <path d="M47.8392 48.7382H45.5068V51.0039H47.8392V48.7382Z" fill="#305C2D" />
                <path d="M52.504 48.7382H50.1716V51.0039H52.504V48.7382Z" fill="#305C2D" />
                <path d="M57.1689 48.7382H54.8365V51.0039H57.1689V48.7382Z" fill="#305C2D" />
            </g>
            <g>
                <path
                    d="M71.2396 11.6301C71.1591 11.1487 70.7696 10.7703 70.274 10.6921C69.9521 10.6423 62.2808 9.46067 52.508 10.1902C50.9709 10.3047 49.4724 10.4644 48.0088 10.6627C31.1828 -1.37085 4.86969 2.58632 3.74897 2.76192C3.25333 2.84009 2.86382 3.21847 2.78335 3.69995C2.60259 4.78865 -1.47213 30.3477 10.9165 46.6952C10.7135 48.117 10.5491 49.5727 10.4302 51.0659C9.68029 60.5583 10.8955 68.0116 10.9468 68.3242C11.0273 68.8057 11.4156 69.1841 11.9124 69.2623C12.1585 69.3008 16.7102 70.0009 23.2153 70.0009C25.2083 70.0009 27.3868 69.9352 29.6784 69.7641C42.7119 68.7933 53.1681 64.8146 59.9146 58.2608C66.6622 51.7071 70.7568 41.5508 71.7562 28.8885C72.5061 19.3961 71.2909 11.9428 71.2396 11.6301ZM51.0059 12.6248C58.1023 11.9394 64.3438 12.3348 67.5707 12.6543L51.0059 28.7458V12.6248ZM38.1777 8.0389C40.4319 8.89423 42.6244 9.92855 44.6839 11.1895C44.5335 11.2166 44.3947 11.254 44.2454 11.2823C43.4524 11.4353 42.6711 11.6007 41.9037 11.7797C41.3906 11.8975 40.8868 12.0244 40.3865 12.1547C39.8267 12.3008 39.2704 12.4515 38.7246 12.6124C38.545 12.6645 38.3549 12.7086 38.1777 12.763V8.0389ZM38.1777 15.1613C38.2896 15.1262 38.4016 15.0934 38.5135 15.0583C38.8937 14.9393 39.2751 14.8203 39.6646 14.7082C40.4844 14.4737 41.3089 14.2641 42.1323 14.0692C42.4576 13.9922 42.7807 13.9129 43.1107 13.8415C43.9679 13.6546 44.8227 13.4915 45.6752 13.3431C46.0099 13.2842 46.3446 13.2264 46.684 13.172C47.351 13.0666 48.0135 12.9726 48.6735 12.8876V31.0104L38.1777 41.2064V15.1613ZM25.3483 4.94499C28.7886 5.38795 32.3641 6.10619 35.8441 7.21982V13.5515C35.0196 13.8483 34.2172 14.1644 33.4324 14.4975C33.2901 14.5575 33.1467 14.6176 33.0056 14.6787C31.388 15.3845 29.8615 16.1662 28.427 17.0261C28.0982 17.2221 27.7751 17.4237 27.4556 17.6288C27.1244 17.8418 26.7885 18.0491 26.4678 18.2711C26.0841 18.5351 25.7156 18.8092 25.3483 19.0857V4.94499ZM25.3483 22.0414H25.3494C25.5232 21.8929 25.6853 21.7343 25.8637 21.5893C26.0235 21.4591 26.1833 21.3276 26.3454 21.2008C26.9809 20.7034 27.6433 20.2276 28.3302 19.7711C28.553 19.6238 28.7804 19.4844 29.0066 19.3428C29.5524 18.9984 30.1157 18.6688 30.6918 18.3493C31.0895 18.1295 31.4907 17.9188 31.8965 17.7137C32.3758 17.4702 32.8656 17.2368 33.3647 17.0091C33.9175 16.7587 34.4761 16.5197 35.0383 16.2931C35.303 16.1866 35.5747 16.0846 35.8441 15.9816V43.4721L25.3483 53.6681V22.0414ZM23.017 4.68442V20.8156L6.4499 4.72181C9.67679 4.40007 15.923 4.00129 23.017 4.68442ZM4.80205 6.32484L21.368 22.4175H4.76707C4.06384 15.5273 4.47318 9.46067 4.80205 6.32484ZM5.03529 24.6832H19.586C19.3026 25.0401 19.0193 25.3981 18.7475 25.7708C18.5201 26.0824 18.3055 26.4086 18.0863 26.7304C17.8764 27.0408 17.6688 27.3546 17.4659 27.6741C16.5807 29.0664 15.776 30.5505 15.0495 32.1218C14.9865 32.2588 14.9247 32.3982 14.8629 32.5364C14.5212 33.2988 14.1947 34.0783 13.8891 34.8803H7.37587C6.22949 31.4987 5.49011 28.0253 5.03529 24.6832ZM12.0663 40.7645C11.8821 41.51 11.7118 42.269 11.5544 43.0394C11.5252 43.1844 11.4867 43.3192 11.4588 43.4653C10.1619 41.4647 9.09835 39.3348 8.21787 37.145H13.0786C13.0226 37.3183 12.9771 37.5018 12.9235 37.6763C12.7579 38.2054 12.604 38.7457 12.4524 39.2907C12.3194 39.7767 12.1888 40.2661 12.0663 40.7645ZM13.453 45.6699C13.5673 44.9709 13.6897 44.2799 13.825 43.6036C13.9241 43.1096 14.0314 42.6145 14.1445 42.1195C14.2996 41.4363 14.4641 40.7634 14.6425 40.1041C14.7661 39.6441 14.9002 39.1842 15.0378 38.7265C15.2361 38.066 15.4437 37.4146 15.6653 36.7802C15.8122 36.3588 15.9696 35.9419 16.1294 35.5238C16.3696 34.8996 16.6169 34.2833 16.8804 33.6863C17.0472 33.3056 17.2268 32.9306 17.4064 32.5545C17.6735 31.9983 17.9487 31.4522 18.2367 30.9209C18.4128 30.5946 18.5948 30.2706 18.7814 29.9489C19.1312 29.3507 19.4939 28.7684 19.8718 28.2042C20.007 28.0003 20.14 27.7953 20.2811 27.5948C20.7557 26.9196 21.2514 26.2704 21.768 25.6462C21.8951 25.4921 22.0281 25.3403 22.1587 25.1885C22.4339 24.869 22.729 24.5722 23.017 24.2675V55.935L12.9655 65.6993C12.5736 61.9789 12.0687 54.1292 13.453 45.6699ZM14.6157 67.3001L24.666 57.5369H57.3011C44.2314 69.1286 21.8438 68.0161 14.6157 67.3001ZM59.5962 55.2711H26.9984L37.4943 45.0752H65.8039C64.3263 48.7503 62.317 52.2509 59.5962 55.2711ZM66.6424 42.8094H39.8267L50.3225 32.6134H68.9842C68.5282 35.9554 67.79 39.4277 66.6424 42.8094ZM69.2559 30.3477H52.6549L69.2209 14.255C69.5509 17.3886 69.9614 23.4529 69.2559 30.3477Z"
                    fill="#A6E34F" />
                <path d="M49.8392 50.7382H47.5068V53.0039H49.8392V50.7382Z" fill="#A6E34F" />
                <path d="M54.504 50.7382H52.1716V53.0039H54.504V50.7382Z" fill="#A6E34F" />
                <path d="M59.1689 50.7382H56.8365V53.0039H59.1689V50.7382Z" fill="#A6E34F" />
            </g>
        </symbol>
        <symbol id="snail" viewBox="0 0 68 69">
            <g>
                <path
                    d="M65.9305 25.8018C65.9305 23.8416 65.2596 22.0362 64.1378 20.599V8.36329C65.7923 7.85956 66.9999 6.31956 66.9999 4.50244C66.9999 2.27737 65.1897 0.467285 62.9647 0.467285C60.7397 0.467285 58.9296 2.27737 58.9296 4.50244C58.9296 6.31956 60.1371 7.85943 61.7917 8.36329V18.5245C60.5225 17.7656 59.0399 17.328 57.4565 17.328C55.9309 17.328 54.4996 17.7353 53.2617 18.4438V8.36329C54.9162 7.85956 56.1238 6.31956 56.1238 4.50244C56.1238 2.27737 54.3136 0.467285 52.0886 0.467285C49.8636 0.467285 48.0535 2.27737 48.0535 4.50244C48.0535 6.31956 49.261 7.85943 50.9156 8.36329V20.4204C49.7085 21.885 48.9826 23.7602 48.9826 25.8018V37.6041C47.6425 34.6439 45.7492 31.9176 43.354 29.5509C38.229 24.4872 31.454 21.6985 24.2772 21.6985C18.4819 21.6985 13.0336 23.9553 8.93563 28.0531C4.83782 32.1509 2.58101 37.5994 2.58101 43.3945C2.58101 49.2907 5.49707 54.5183 9.96253 57.7119L0.496159 64.4018C0.0788292 64.6967 -0.0996122 65.2277 0.0550922 65.7149C0.209797 66.2019 0.662042 66.5329 1.17308 66.5329H49.7575C54.8886 66.5329 58.9314 65.0773 61.7733 62.2066C65.9413 57.9969 65.9328 52.3136 65.9304 52.0853V25.8018H65.9305ZM61.2757 4.50244C61.2757 3.57103 62.0335 2.81338 62.9647 2.81338C63.8961 2.81338 64.6538 3.57103 64.6538 4.50244C64.6538 5.43384 63.896 6.19149 62.9647 6.19149C62.0335 6.19163 61.2757 5.43384 61.2757 4.50244ZM50.3997 4.50244C50.3997 3.57103 51.1574 2.81338 52.0888 2.81338C53.02 2.81338 53.7778 3.57103 53.7778 4.50244C53.7778 5.43384 53.02 6.19149 52.0888 6.19149C51.1574 6.19163 50.3997 5.43384 50.3997 4.50244ZM4.92739 43.3945C4.92739 38.2259 6.94006 33.3668 10.5949 29.7119C14.2495 26.0574 19.1089 24.0446 24.2775 24.0446C37.6073 24.0446 48.5053 34.5587 48.9675 47.6579L33.3 52.3695C34.0594 50.6242 34.4808 48.6996 34.4808 46.6782C34.4808 40.2374 29.2408 34.9974 22.8 34.9974C20.2412 34.9974 17.8356 35.9938 16.0264 37.8031C14.2171 39.6123 13.2207 42.0179 13.2207 44.5766C13.2207 48.9317 16.7637 52.4748 21.1186 52.4748C24.732 52.4746 27.6717 49.5348 27.6717 45.9217C27.6717 42.9014 25.2146 40.4444 22.1947 40.4444C20.9616 40.4444 19.8023 40.9245 18.9304 41.7966C18.0585 42.6685 17.5782 43.8279 17.5784 45.0607C17.5784 47.2263 19.3403 48.9883 21.5057 48.9883C22.1535 48.9883 22.6788 48.4631 22.6788 47.8153C22.6788 47.1675 22.1535 46.6422 21.5057 46.6422C20.6338 46.6422 19.9245 45.9327 19.9245 45.0605C19.9243 44.4543 20.1605 43.8843 20.5892 43.4554C21.0182 43.0266 21.5883 42.7905 22.1947 42.7905C23.9211 42.7905 25.3256 44.1951 25.3256 45.9217C25.3256 48.2414 23.4382 50.1285 21.1185 50.1287C18.0573 50.1287 15.5667 47.6379 15.5667 44.5766C15.5667 42.6445 16.3189 40.8282 17.6852 39.4619C19.0513 38.0959 20.8677 37.3434 22.7998 37.3434C27.947 37.3434 32.1345 41.5309 32.1345 46.6781C32.1345 53.2739 26.7686 58.64 20.1727 58.64C11.7664 58.64 4.92739 51.8009 4.92739 43.3945ZM60.0876 60.5747C57.703 62.9713 54.2275 64.1866 49.7575 64.1866H4.8657L11.9724 59.1644C12.0282 59.1251 12.0784 59.081 12.1249 59.0343C14.538 60.2812 17.2745 60.9863 20.1727 60.9863C24.8132 60.9863 28.9452 58.7652 31.561 55.3308C31.6137 55.3225 31.6664 55.3105 31.7189 55.2948L50.4934 49.649C50.9893 49.4999 51.3287 49.0434 51.3287 48.5256V25.8018C51.3287 22.423 54.0776 19.6741 57.4565 19.6741C60.8355 19.6741 63.5844 22.423 63.5844 25.8018L63.5845 52.0941C63.5847 52.1434 63.5692 57.0756 60.0876 60.5747Z"
                    fill="#305C2D" />
            </g>
            <g>
                <path
                    d="M66.9305 27.8018C66.9305 25.8416 66.2596 24.0362 65.1378 22.599V10.3633C66.7923 9.85956 67.9999 8.31956 67.9999 6.50244C67.9999 4.27737 66.1897 2.46729 63.9647 2.46729C61.7397 2.46729 59.9296 4.27737 59.9296 6.50244C59.9296 8.31956 61.1371 9.85943 62.7917 10.3633V20.5245C61.5225 19.7656 60.0399 19.328 58.4565 19.328C56.9309 19.328 55.4996 19.7353 54.2617 20.4438V10.3633C55.9162 9.85956 57.1238 8.31956 57.1238 6.50244C57.1238 4.27737 55.3136 2.46729 53.0886 2.46729C50.8636 2.46729 49.0535 4.27737 49.0535 6.50244C49.0535 8.31956 50.261 9.85943 51.9156 10.3633V22.4204C50.7085 23.885 49.9826 25.7602 49.9826 27.8018V39.6041C48.6425 36.6439 46.7492 33.9176 44.354 31.5509C39.229 26.4872 32.454 23.6985 25.2772 23.6985C19.4819 23.6985 14.0336 25.9553 9.93563 30.0531C5.83782 34.1509 3.58101 39.5994 3.58101 45.3945C3.58101 51.2907 6.49707 56.5183 10.9625 59.7119L1.49616 66.4018C1.07883 66.6967 0.900388 67.2277 1.05509 67.7149C1.2098 68.2019 1.66204 68.5329 2.17308 68.5329H50.7575C55.8886 68.5329 59.9314 67.0773 62.7733 64.2066C66.9413 59.9969 66.9328 54.3136 66.9304 54.0853V27.8018H66.9305ZM62.2757 6.50244C62.2757 5.57103 63.0335 4.81338 63.9647 4.81338C64.8961 4.81338 65.6538 5.57103 65.6538 6.50244C65.6538 7.43384 64.896 8.19149 63.9647 8.19149C63.0335 8.19163 62.2757 7.43384 62.2757 6.50244ZM51.3997 6.50244C51.3997 5.57103 52.1574 4.81338 53.0888 4.81338C54.02 4.81338 54.7778 5.57103 54.7778 6.50244C54.7778 7.43384 54.02 8.19149 53.0888 8.19149C52.1574 8.19163 51.3997 7.43384 51.3997 6.50244ZM5.92739 45.3945C5.92739 40.2259 7.94006 35.3668 11.5949 31.7119C15.2495 28.0574 20.1089 26.0446 25.2775 26.0446C38.6073 26.0446 49.5053 36.5587 49.9675 49.6579L34.3 54.3695C35.0594 52.6242 35.4808 50.6996 35.4808 48.6782C35.4808 42.2374 30.2408 36.9974 23.8 36.9974C21.2412 36.9974 18.8356 37.9938 17.0264 39.8031C15.2171 41.6123 14.2207 44.0179 14.2207 46.5766C14.2207 50.9317 17.7637 54.4748 22.1186 54.4748C25.732 54.4746 28.6717 51.5348 28.6717 47.9217C28.6717 44.9014 26.2146 42.4444 23.1947 42.4444C21.9616 42.4444 20.8023 42.9245 19.9304 43.7966C19.0585 44.6685 18.5782 45.8279 18.5784 47.0607C18.5784 49.2263 20.3403 50.9883 22.5057 50.9883C23.1535 50.9883 23.6788 50.4631 23.6788 49.8153C23.6788 49.1675 23.1535 48.6422 22.5057 48.6422C21.6338 48.6422 20.9245 47.9327 20.9245 47.0605C20.9243 46.4543 21.1605 45.8843 21.5892 45.4554C22.0182 45.0266 22.5883 44.7905 23.1947 44.7905C24.9211 44.7905 26.3256 46.1951 26.3256 47.9217C26.3256 50.2414 24.4382 52.1285 22.1185 52.1287C19.0573 52.1287 16.5667 49.6379 16.5667 46.5766C16.5667 44.6445 17.3189 42.8282 18.6852 41.4619C20.0513 40.0959 21.8677 39.3434 23.7998 39.3434C28.947 39.3434 33.1345 43.5309 33.1345 48.6781C33.1345 55.2739 27.7686 60.64 21.1727 60.64C12.7664 60.64 5.92739 53.8009 5.92739 45.3945ZM61.0876 62.5747C58.703 64.9713 55.2275 66.1866 50.7575 66.1866H5.8657L12.9724 61.1644C13.0282 61.1251 13.0784 61.081 13.1249 61.0343C15.538 62.2812 18.2745 62.9863 21.1727 62.9863C25.8132 62.9863 29.9452 60.7652 32.561 57.3308C32.6137 57.3225 32.6664 57.3105 32.7189 57.2948L51.4934 51.649C51.9893 51.4999 52.3287 51.0434 52.3287 50.5256V27.8018C52.3287 24.423 55.0776 21.6741 58.4565 21.6741C61.8355 21.6741 64.5844 24.423 64.5844 27.8018L64.5845 54.0941C64.5847 54.1434 64.5692 59.0756 61.0876 62.5747Z"
                    fill="#A6E34F" />
            </g>
        </symbol>
        <symbol id="trending" viewBox="0 0 66 66">
            <g>
                <path
                    d="M47.1671 17.139C46.7185 16.3963 45.8292 16.0433 44.9933 16.2764C44.157 16.5096 43.5789 17.2709 43.5789 18.139C43.5789 20.4991 41.6589 22.4186 39.2993 22.4186C36.9392 22.4186 35.0197 20.4991 35.0197 18.139V1.93356C35.0197 1.15156 34.5484 0.446606 33.8258 0.146999C33.1032 -0.152104 32.2714 0.013561 31.7185 0.566449C31.502 0.783475 26.3452 5.96944 21.1215 13.8055C18.0413 18.426 15.583 23.0093 13.8156 27.4278C11.5769 33.0252 10.4414 38.3844 10.4414 43.3553C10.4414 55.8416 20.5998 66.0001 33.0856 66.0001C45.5719 66.0001 55.7303 55.8416 55.7303 43.3553C55.7303 35.3631 52.8491 26.5426 47.1671 17.139ZM33.0856 62.1329C22.7323 62.1329 14.3086 53.7091 14.3086 43.3553C14.3086 33.1637 19.7403 22.8617 24.2973 16.0136C26.7672 12.302 29.2562 9.17397 31.152 6.94933V18.139C31.152 22.6311 34.8067 26.2858 39.2988 26.2858C42.0451 26.2858 44.4787 24.9202 45.9551 22.832C49.8777 30.2185 51.8631 37.1079 51.8631 43.3553C51.8631 53.7091 43.4399 62.1329 33.0856 62.1329Z"
                    fill="#305C2D" />
                <path
                    d="M44.0547 32.6351H35.7705C34.7025 32.6351 33.8369 33.5007 33.8369 34.5682C33.8364 35.6362 34.7025 36.5023 35.77 36.5023H39.3869L31.1258 44.7628L26.6353 40.2723C25.8804 39.5175 24.6558 39.5175 23.901 40.2723L19.5071 44.6657C18.7518 45.421 18.7518 46.6451 19.5066 47.4004C20.2619 48.1557 21.486 48.1552 22.2414 47.4004L25.2681 44.3741L29.7582 48.8647C30.1208 49.2272 30.6127 49.4312 31.1258 49.4312C31.6384 49.4312 32.1304 49.2272 32.4929 48.8647L42.1211 39.237V42.8529C42.1211 43.9204 42.9867 44.7865 44.0547 44.7865C45.1228 44.7865 45.9883 43.9204 45.9883 42.8529V34.5687C45.9883 33.5007 45.1228 32.6351 44.0547 32.6351Z"
                    fill="#A6E34F" />
            </g>
        </symbol>
        <symbol id="shield" viewBox="0 0 62 62">
            <path
                d="M53.6972 18.4494L53.6955 18.407C53.6718 17.8829 53.656 17.3285 53.6464 16.7117C53.6019 13.7036 51.2106 11.2154 48.2021 11.0472C41.9296 10.6972 37.0772 8.65185 32.9312 4.6107L32.8958 4.57699C31.5435 3.33705 29.5036 3.33705 28.1508 4.57699L28.1154 4.6107C23.9694 8.65185 19.117 10.6972 12.8445 11.0477C9.83643 11.2154 7.44479 13.7036 7.40025 16.7121C7.3911 17.3248 7.37486 17.8792 7.35114 18.407L7.34864 18.5056C7.22669 24.9018 7.07518 32.8621 9.7382 40.0874C11.2025 44.0607 13.4201 47.5145 16.3292 50.3536C19.6423 53.5869 23.9819 56.1537 29.2272 57.9826C29.3978 58.0422 29.5752 58.0904 29.7558 58.1267C30.0105 58.1774 30.2669 58.2028 30.5233 58.2028C30.7797 58.2028 31.0365 58.1774 31.2908 58.1267C31.4715 58.0904 31.65 58.0417 31.8215 57.9818C37.0606 56.1496 41.3956 53.5815 44.7058 50.3486C47.6136 47.5087 49.8313 44.054 51.2968 40.0799C53.9698 32.833 53.8187 24.8576 53.6972 18.4494ZM48.2933 38.9723C45.4846 46.5876 39.7511 51.8175 30.7652 54.96C30.7331 54.9708 30.699 54.9804 30.6636 54.9875C30.5708 55.0058 30.4763 55.0058 30.3822 54.9871C30.3473 54.98 30.3131 54.9708 30.2815 54.96C21.286 51.8233 15.5487 46.5963 12.7421 38.9806C10.2876 32.3206 10.4266 25.0133 10.5494 18.5668L10.5503 18.531C10.5752 17.977 10.5919 17.3968 10.601 16.7591C10.621 15.4234 11.6849 14.3184 13.0231 14.2439C16.5726 14.0457 19.691 13.3598 22.5563 12.1469C25.4179 10.9357 27.9594 9.22832 30.3252 6.92742C30.4455 6.82586 30.6016 6.82545 30.7214 6.92742C33.0877 9.22832 35.6292 10.9357 38.4903 12.1469C41.3556 13.3598 44.474 14.0457 48.024 14.2439C49.3622 14.3184 50.426 15.4234 50.4456 16.7595C50.4552 17.4005 50.4718 17.9807 50.4968 18.531C50.6192 24.985 50.7549 32.2981 48.2933 38.9723Z"
                fill="#305C2D" />
            <path
                d="M30.5226 17.3298C23.0255 17.3298 16.9265 23.4292 16.9265 30.9259C16.9265 38.423 23.0255 44.5224 30.5226 44.5224C38.0192 44.5224 44.1186 38.423 44.1186 30.9259C44.1186 23.4292 38.0192 17.3298 30.5226 17.3298ZM30.5226 41.3207C24.7907 41.3207 20.1277 36.6577 20.1277 30.9259C20.1277 25.194 24.7907 20.531 30.5226 20.531C36.254 20.531 40.917 25.194 40.917 30.9259C40.917 36.6577 36.254 41.3207 30.5226 41.3207Z"
                fill="#305C2D" />
            <path
                d="M34.4301 26.7048L28.1151 33.0199L26.4011 31.3058C25.7759 30.6807 24.7624 30.6807 24.1372 31.3058C23.5124 31.931 23.5124 32.9445 24.1372 33.5693L26.9834 36.4155C27.2959 36.728 27.7055 36.8841 28.1151 36.8841C28.5247 36.8841 28.9342 36.728 29.2468 36.4155L36.694 28.9683C37.3187 28.3431 37.3187 27.3296 36.694 26.7048C36.0688 26.0793 35.0553 26.0793 34.4301 26.7048Z"
                fill="#A6E34F" />
        </symbol>
        <symbol id="investment" viewBox="0 0 63 63">
            <g>
                <path d="M23.7556 48.3108L25.8182 47.9233L26.2329 50.1314L24.1708 50.5189L23.7556 48.3108Z"
                    fill="#305C2D" />
                <path d="M24.5742 52.6762L26.6367 52.2892L27.8582 58.8004L25.7961 59.1873L24.5742 52.6762Z"
                    fill="#305C2D" />
                <path
                    d="M32.558 21.0105V19.9608H32.8276C34.2407 19.9618 35.4458 18.9372 35.6718 17.5425C35.8978 16.1478 35.0788 14.7946 33.7379 14.3492L29.9429 13.0893C29.5692 12.9765 29.3365 12.6044 29.3985 12.219C29.4605 11.833 29.7983 11.5532 30.1884 11.5629H32.8276C33.2581 11.5629 33.6077 11.912 33.6077 12.343V12.6126H35.7072V12.343C35.7056 10.753 34.4175 9.46445 32.8276 9.46343H32.558V8.4137H30.4585V9.46343H30.1884C28.7752 9.4624 27.5707 10.487 27.3441 11.8822C27.1181 13.2769 27.9372 14.6296 29.2786 15.0755L33.0731 16.3349C33.4473 16.4481 33.6795 16.8203 33.6174 17.2057C33.5554 17.5912 33.2181 17.8715 32.8276 17.8613H30.1884C29.7578 17.8613 29.4088 17.5122 29.4088 17.0817V16.8116H27.3093V17.0817C27.3103 18.6711 28.5989 19.9597 30.1884 19.9608H30.4585V21.0105H32.558Z"
                    fill="#A6E34F" />
                <path
                    d="M31.5082 4.21484C25.7132 4.22151 21.017 8.91763 21.0109 14.7122H23.1104C23.1155 10.0765 26.8721 6.31944 31.5082 6.31431V4.21484Z"
                    fill="#A6E34F" />
                <path
                    d="M31.5082 25.2094C37.3027 25.2033 41.9989 20.5072 42.0055 14.7121H39.9061C39.9004 19.3482 36.1438 23.1048 31.5082 23.11V25.2094Z"
                    fill="#A6E34F" />
                <path
                    d="M21.0109 29.4084H14.7125C14.1327 29.4084 13.6627 29.8784 13.6627 30.4582C13.6699 36.8324 18.8355 41.998 25.2098 42.0052H30.4585V44.1047H19.9611C19.6485 44.1052 19.3527 44.2441 19.1533 44.4845C18.9539 44.7254 18.8724 45.0417 18.9298 45.3487L22.079 62.1444C22.1728 62.6401 22.6054 62.9994 23.1103 62.9999H39.9061C40.4104 62.9994 40.8435 62.6401 40.9368 62.1444L44.086 45.3487C44.1434 45.0417 44.0619 44.7254 43.8625 44.4845C43.6632 44.2441 43.3674 44.1052 43.0553 44.1047H32.5579V42.0052H37.8066C44.1803 41.998 49.346 36.8324 49.3537 30.4582C49.3537 29.8784 48.8836 29.4084 48.3039 29.4084H42.0055C38.2397 29.4125 34.7127 31.2542 32.5579 34.3424V29.3551C40.4499 28.7898 46.4776 22.0782 46.1947 14.1709C45.9123 6.26406 39.4201 0 31.5082 0C23.5957 0 17.1041 6.26406 16.8211 14.1709C16.5382 22.0782 22.5665 28.7898 30.4585 29.3551V34.3424C28.3031 31.2542 24.7762 29.4125 21.0109 29.4084ZM41.7954 46.2042L39.0347 60.9004H23.9812L21.2256 46.2042H41.7954ZM25.2098 39.9058C20.4004 39.9001 16.3609 36.287 15.8206 31.5079H21.0109C25.8197 31.514 29.8593 35.1271 30.3995 39.9058H25.2098ZM42.0055 31.5079H47.1952C46.655 36.287 42.6155 39.9001 37.8066 39.9058H32.6164C33.1566 35.1271 37.1961 31.514 42.0055 31.5079ZM18.9114 14.7122C18.9114 7.75511 24.5511 2.11536 31.5082 2.11536C38.4652 2.11536 44.105 7.75511 44.105 14.7122C44.105 21.6692 38.4652 27.309 31.5082 27.309C24.5542 27.3018 18.9186 21.6661 18.9114 14.7122Z"
                    fill="#305C2D" />
            </g>
        </symbol>
        <symbol id="shipped" viewBox="0 0 62 62">
            <g>
                <path
                    d="M57.6598 28.0166L56.0542 21.5944C56.4931 21.5012 56.8225 21.1117 56.8225 20.6452V19.6097C56.8225 17.3615 54.9934 15.5325 52.7453 15.5325L45.4322 15.5325V13.3966C45.4322 12.2903 44.5322 11.3903 43.4259 11.3903L6.14817 11.3903C5.04186 11.3903 4.14189 12.2903 4.14189 13.3966L4.14189 31C4.14189 31.5361 4.5765 31.9708 5.1127 31.9708C5.64878 31.9708 6.08351 31.5362 6.08351 31L6.08351 13.3966C6.08351 13.3609 6.11245 13.3319 6.14817 13.3319L43.4258 13.3319C43.4615 13.3319 43.4905 13.3609 43.4905 13.3966V31.0002C43.4905 31.5363 43.9251 31.9711 44.4613 31.9711C44.9973 31.9711 45.4321 31.5365 45.4321 31.0002V29.8997H56.8838C56.8848 29.8997 56.8855 29.9 56.8863 29.9C56.8873 29.9 56.8881 29.8999 56.889 29.8999C58.2982 29.9008 59.4947 30.8258 59.9057 32.1003H56.8871C56.351 32.1003 55.9163 32.5349 55.9163 33.0711V35.142C55.9163 36.8193 57.2807 38.1838 58.958 38.1838H60.0583V42.4551H57.5199C56.686 40.0474 54.3973 38.3131 51.7096 38.3131C49.0219 38.3131 46.733 40.0474 45.8993 42.4551H45.4318V35.1419C45.4318 34.6058 44.9972 34.1711 44.461 34.1711C43.9249 34.1711 43.4902 34.6057 43.4902 35.1419V42.4549H23.3489C22.5151 40.0472 20.2263 38.3129 17.5386 38.3129C14.8509 38.3129 12.562 40.0472 11.7283 42.4549H6.14817C6.11245 42.4549 6.08351 42.4259 6.08351 42.3902V40.2545H10.2902C10.8263 40.2545 11.261 39.8199 11.261 39.2837C11.261 38.7475 10.8264 38.3129 10.2902 38.3129H0.970809C0.434727 38.3129 0 38.7475 0 39.2837C0 39.8199 0.434606 40.2545 0.970809 40.2545H4.14201V42.3902C4.14201 43.4965 5.04198 44.3965 6.14829 44.3965H11.3921C11.3919 44.418 11.3904 44.4395 11.3904 44.4612C11.3904 47.8513 14.1486 50.6093 17.5386 50.6093C20.9286 50.6093 23.6868 47.8513 23.6868 44.4612C23.6868 44.4394 23.6853 44.418 23.6851 44.3965H45.5631C45.5629 44.418 45.5614 44.4395 45.5614 44.4612C45.5614 47.8513 48.3196 50.6093 51.7096 50.6093C55.0996 50.6093 57.8577 47.8513 57.8577 44.4612C57.8577 44.4394 57.8563 44.418 57.856 44.3965H61.0291C61.5652 44.3965 61.9999 43.9619 61.9999 43.4257V33.0708C62 30.5143 60.1137 28.3902 57.6598 28.0166ZM45.4322 17.4739H52.7453C53.9229 17.4739 54.881 18.432 54.881 19.6097V19.6743H45.4322V17.4739ZM45.4322 27.9582V21.6158H54.0583L55.6439 27.9582H45.4322ZM17.5386 48.6681C15.2191 48.6681 13.3319 46.7811 13.3319 44.4614C13.3319 42.1417 15.2191 40.2547 17.5386 40.2547C19.8582 40.2547 21.7453 42.1417 21.7453 44.4614C21.7453 46.7811 19.8582 48.6681 17.5386 48.6681ZM51.7098 48.6681C49.3903 48.6681 47.5031 46.7811 47.5031 44.4614C47.5031 42.1417 49.3903 40.2547 51.7098 40.2547C54.0294 40.2547 55.9165 42.1417 55.9165 44.4614C55.9165 46.7811 54.0294 48.6681 51.7098 48.6681ZM60.0585 36.2422H58.9582C58.3516 36.2422 57.858 35.7486 57.858 35.1419V34.0416H60.0584V36.2422H60.0585Z"
                    fill="#305C2D" />
                <path
                    d="M17.5386 42.4552C16.4323 42.4552 15.5323 43.3551 15.5323 44.4615C15.5323 45.5678 16.4323 46.4677 17.5386 46.4677C18.6449 46.4677 19.5449 45.5678 19.5449 44.4615C19.5449 43.3551 18.6449 42.4552 17.5386 42.4552Z"
                    fill="#305C2D" />
                <path
                    d="M51.7098 42.4552C50.6035 42.4552 49.7035 43.3551 49.7035 44.4615C49.7035 45.5678 50.6035 46.4677 51.7098 46.4677C52.8161 46.4677 53.7161 45.5678 53.7161 44.4615C53.7161 43.3551 52.8161 42.4552 51.7098 42.4552Z"
                    fill="#305C2D" />
                <path
                    d="M40.3194 38.3132H25.8225C25.2864 38.3132 24.8517 38.7478 24.8517 39.284C24.8517 39.8202 25.2863 40.2548 25.8225 40.2548H40.3194C40.8555 40.2548 41.2902 39.8202 41.2902 39.284C41.2902 38.7478 40.8556 38.3132 40.3194 38.3132Z"
                    fill="#305C2D" />
                <path
                    d="M15.4677 34.1712H3.04175C2.50567 34.1712 2.07095 34.6058 2.07095 35.142C2.07095 35.6782 2.50555 36.1128 3.04175 36.1128H15.4677C16.0038 36.1128 16.4385 35.6782 16.4385 35.142C16.4385 34.6058 16.0038 34.1712 15.4677 34.1712Z"
                    fill="#305C2D" />
                <path
                    d="M33.7574 20.9941C33.3784 20.615 32.7636 20.615 32.3846 20.9942L23.7516 29.6271L19.2606 25.1361C18.8814 24.7569 18.2668 24.7569 17.8877 25.1361C17.5086 25.5152 17.5086 26.1298 17.8877 26.5089L23.0652 31.6864C23.2547 31.876 23.5032 31.9707 23.7516 31.9707C23.9999 31.9707 24.2485 31.876 24.4379 31.6864L33.7573 22.367C34.1365 21.9878 34.1365 21.3732 33.7574 20.9941Z"
                    fill="#A6E34F" />
            </g>
        </symbol>
        <symbol id="growth" viewBox="0 0 69 69" fill="#F4F4F4">
            <circle cx="34.5" cy="34.5" r="33.5" stroke="#305C2D" stroke-width="2" />
            <rect y="33" width="69" height="3" fill="#F4F4F4" />
            <rect x="36" width="69" height="3" transform="rotate(90 36 0)" fill="#F4F4F4" />
            <g>
                <path
                    d="M35.3833 49.2501C34.164 49.2501 32.9454 49.0114 31.8169 48.5346L26.4208 46.2558C24.4685 45.4309 22.4044 44.9085 20.2857 44.7027L18.5137 44.5306C18.2219 44.5024 18 44.264 18 43.9793V38.5794C18 38.4596 18.0401 38.3429 18.1142 38.2472C18.2467 38.075 21.4227 34.0444 26.2742 35.0931C29.0028 35.6821 31.1998 36.7844 32.5623 37.6055C33.5515 38.2015 34.711 38.5163 35.9155 38.5163H41.3117C42.2418 38.5163 43.0593 38.9944 43.5165 39.7115L48.164 34.5101C49.0651 33.3412 50.5392 32.6254 52.0825 32.6254H52.4297C52.6226 32.6254 52.8021 32.7198 52.9072 32.8764C53.0126 33.0331 53.0292 33.2312 52.9519 33.4024L48.7485 42.6823C47.8295 44.7119 45.9583 46.245 43.7433 46.783L43.0038 46.9625L38.7019 48.6341C37.6432 49.0453 36.5131 49.2501 35.3833 49.2501ZM19.1409 43.4777L20.3993 43.6001C22.6358 43.8173 24.8148 44.3692 26.876 45.2398L32.2719 47.5185C34.1693 48.32 36.3574 48.3514 38.2786 47.6048L42.6158 45.9195C42.6399 45.9103 42.6644 45.9027 42.6896 45.8966L43.4666 45.7077C45.3421 45.2521 46.9265 43.9542 47.7042 42.236L51.5382 33.7717C50.5565 33.9122 49.6532 34.4261 49.0514 35.2053L43.9029 40.9694C43.9036 40.991 43.9039 41.0122 43.9039 41.0341C43.9039 42.4224 42.7411 43.5519 41.312 43.5519H33.7832C32.8045 43.5519 31.8372 43.7044 30.9087 44.0049L30.6992 43.4882L30.522 42.9616L30.551 42.9524C31.5931 42.6151 32.6814 42.4436 33.7832 42.4436H41.312C42.1119 42.4436 42.7633 41.8111 42.7633 41.0338C42.7633 40.2565 42.1122 39.624 41.312 39.624H35.9159C34.4985 39.624 33.1311 39.2515 31.9615 38.5467C30.6744 37.771 28.5995 36.7302 26.0275 36.1745C22.3535 35.3828 19.7097 38.1219 19.1412 38.7753V43.4777H19.1409Z"
                    fill="#305C2D" />
                <path
                    d="M40.4626 32.4999C39.5853 32.4999 38.6017 32.2368 37.5189 31.7109C37.3877 31.6468 37.2865 31.5359 37.2369 31.4018C37.1929 31.2816 36.1737 28.4338 37.7934 26.3278C38.9705 24.7969 41.1838 24.1074 44.3755 24.2801C44.6666 24.2957 44.8986 24.5223 44.913 24.8058C44.9244 25.0258 45.1597 30.2189 42.4337 31.948C41.8541 32.3161 41.1955 32.4999 40.4626 32.4999ZM38.2463 30.8216C39.7446 31.5042 40.9423 31.5711 41.8104 31.0204C43.4268 29.9948 43.7763 26.9504 43.7848 25.3659C41.284 25.3067 39.5814 25.8542 38.7071 26.9907C37.6667 28.3441 38.0711 30.2056 38.2463 30.8216Z"
                    fill="#305C2D" />
                <path
                    d="M31.7399 25.2405C30.7286 25.2405 29.5619 25.03 28.5437 24.3056C26.8166 23.0762 26.0229 20.7356 26.1842 17.3492C26.1979 17.0661 26.4289 16.8385 26.7203 16.8216C26.9671 16.808 32.8067 16.5053 34.7717 19.3705C35.6868 20.7042 35.6117 22.451 34.5494 24.5634C34.4848 24.6918 34.3719 24.791 34.2339 24.8401C34.1572 24.8677 33.0864 25.2405 31.7399 25.2405ZM34.0371 24.3202H34.0426H34.0371ZM27.3068 17.9119C27.2575 20.6243 27.8994 22.4732 29.2176 23.4116C30.7958 24.5348 32.9507 24.0574 33.6282 23.8656C34.4032 22.2317 34.4688 20.9271 33.8227 19.9849C32.6217 18.2337 29.0998 17.8913 27.3068 17.9119Z"
                    fill="#305C2D" />
                <path
                    d="M36.1942 39.4293C36.1763 39.4293 36.1583 39.4284 36.1401 39.4268C35.8362 39.3989 35.6088 39.1437 35.6241 38.8473C35.6577 38.1955 35.7151 37.5773 35.7931 36.9914C36.0304 33.0705 35.908 23.9395 29.9652 21.4135C29.6767 21.2908 29.5449 20.9643 29.6712 20.6837C29.7971 20.4038 30.1343 20.276 30.4224 20.3984C33.9245 21.8868 36.1277 25.5925 36.7924 31.1147C36.8521 31.6096 36.8969 32.0975 36.9301 32.5727C38.4953 28.7307 40.8897 27.3732 41.0323 27.2956C41.3065 27.145 41.6544 27.2407 41.809 27.5067C41.9628 27.773 41.8662 28.11 41.593 28.2603C41.5326 28.2945 37.8609 30.435 36.9393 37.0361C36.8691 38.1654 36.7679 38.8853 36.7585 38.9513C36.719 39.2277 36.4759 39.4293 36.1942 39.4293Z"
                    fill="#305C2D" />
            </g>
        </symbol>
        <symbol id="eco" viewBox="0 0 69 69" fill="#F4F4F4">
            <circle cx="34.5" cy="34.5" r="33.5" stroke="#305C2D" stroke-width="2" />
            <rect y="33" width="69" height="3" fill="#F4F4F4" />
            <rect x="36" width="69" height="3" transform="rotate(90 36 0)" fill="#F4F4F4" />
            <g>
                <path
                    d="M51.5148 33.7717L51.5096 33.7535C51.4563 33.5332 51.293 33.3523 51.0733 33.2795C50.9918 33.2524 49.044 32.6187 46.263 32.8139C43.7028 32.9934 39.9184 33.9401 36.4277 37.4308C32.9371 40.9215 31.9904 44.7058 31.811 47.2658C31.616 50.0469 32.2497 51.9945 32.2768 52.076C32.3428 52.275 32.4989 52.431 32.6978 52.4971C32.7685 52.5206 34.2419 53 36.4454 53C36.7832 53 37.1383 52.9887 37.508 52.9628C40.068 52.7833 43.8524 51.8367 47.3431 48.3461C53.5194 42.1697 51.9018 35.1218 51.5148 33.7717ZM44.6951 34.356C45.22 34.2547 45.7546 34.1832 46.299 34.1428C47.6441 34.0429 48.7836 34.1595 49.5595 34.2917C49.5264 34.3145 49.4946 34.3401 49.4652 34.3695L44.6951 39.1397V34.356ZM43.3669 34.6839V40.4678L38.9158 44.9189V37.0696C38.9158 37.0479 38.9146 37.0266 38.9126 37.0054C40.29 35.939 41.7784 35.1635 43.3669 34.6839ZM33.1358 47.3587C33.3738 43.9636 34.7973 40.9393 37.3668 38.3699C37.4401 38.2967 37.5137 38.2246 37.5877 38.1533V46.2175C37.5877 46.227 37.5887 46.2362 37.5891 46.2455L33.285 50.5496C33.1559 49.7878 33.0434 48.6778 33.1358 47.3587ZM37.4719 51.6338C36.1351 51.7331 35.0013 51.6184 34.2256 51.4872L36.3 49.4128C36.3023 49.4128 36.3044 49.4132 36.3066 49.4132H43.9629C41.9967 50.714 39.8238 51.4592 37.4719 51.6338ZM46.404 47.4069C46.1682 47.6426 45.9285 47.8686 45.6851 48.0851H37.6278L41.482 44.2309H48.8613C48.2508 45.2901 47.4496 46.3613 46.404 47.4069ZM49.5347 42.9028H42.8101L50.4043 35.3086C50.4326 35.2802 50.4573 35.2497 50.4794 35.2179C50.7548 36.8201 50.9288 39.7327 49.5347 42.9028Z"
                    fill="#305C2D" />
                <path
                    d="M33.5723 37.4306C30.0816 33.94 26.2972 32.9933 23.737 32.8137C20.9561 32.6187 19.0082 33.2523 18.9267 33.2793C18.707 33.3522 18.5437 33.5331 18.4904 33.7534L18.4852 33.7716C18.0982 35.1217 16.4806 42.1697 22.657 48.346C24.6165 50.3056 26.8608 51.6676 29.3275 52.3942C29.3901 52.4127 29.4533 52.4214 29.5155 52.4214C29.8024 52.4214 30.067 52.2341 30.1522 51.9449C30.2558 51.5931 30.0546 51.2239 29.7029 51.1203C27.4516 50.457 25.397 49.2077 23.5962 47.4069C22.0265 45.8373 21.0061 44.2101 20.3583 42.6523H26.9395L30.1447 45.8575C30.2744 45.9872 30.4443 46.052 30.6142 46.052C30.7842 46.052 30.9542 45.9872 31.0838 45.8575C31.3431 45.5982 31.3431 45.1777 31.0838 44.9183L30.3517 44.1863V36.4697C31.1471 37.0113 31.9082 37.645 32.6331 38.3698C32.8924 38.6291 33.3129 38.6291 33.5723 38.3698C33.8317 38.1105 33.8316 37.69 33.5723 37.4306ZM23.6441 34.1386C23.9349 34.159 24.2228 34.1888 24.5081 34.2266V38.3428L20.4968 34.3314C20.4815 34.3162 20.4655 34.3019 20.4492 34.2884C21.2111 34.159 22.3228 34.0459 23.6441 34.1386ZM19.8867 41.3243V41.3242C19.1352 38.7927 19.2909 36.5604 19.5189 35.2277C19.5312 35.2423 19.5439 35.2568 19.5576 35.2706L25.6113 41.3243H19.8867V41.3243ZM29.0236 42.8582L25.8362 39.6708V34.4691C26.9458 34.7301 28.0094 35.1303 29.0236 35.6678V42.8582Z"
                    fill="#305C2D" />
                <path
                    d="M30.5422 48.8562C29.259 48.4782 28.0407 47.8722 26.9211 47.0553C26.6248 46.8391 26.2095 46.904 25.9932 47.2003C25.777 47.4965 25.842 47.9119 26.1382 48.1282C27.3813 49.0354 28.7367 49.709 30.1668 50.1302C30.2294 50.1487 30.2926 50.1575 30.3548 50.1575C30.6417 50.1575 30.9063 49.9701 30.9915 49.6809C31.0952 49.3291 30.894 48.9598 30.5422 48.8562Z"
                    fill="#305C2D" />
                <path
                    d="M25.3241 45.6834L25.3217 45.6811C25.0624 45.4219 24.6432 45.4231 24.3838 45.6823C24.1244 45.9416 24.1256 46.3633 24.385 46.6226C24.5146 46.7523 24.6846 46.8171 24.8545 46.8171C25.0244 46.8171 25.1944 46.7523 25.3241 46.6226C25.5834 46.3633 25.5834 45.9428 25.3241 45.6834Z"
                    fill="#305C2D" />
                <path
                    d="M26.5101 27.4333H22.9144V24.5447H25.3913C25.7581 24.5447 26.0554 24.2474 26.0554 23.8807C26.0554 23.5139 25.7581 23.2166 25.3913 23.2166H22.9144V20.328H26.51C26.8768 20.328 27.1741 20.0307 27.1741 19.6639C27.1741 19.2972 26.8768 18.9999 26.51 18.9999H22.2504C21.8836 18.9999 21.5863 19.2972 21.5863 19.6639V28.0973C21.5863 28.4641 21.8836 28.7614 22.2504 28.7614H26.5101C26.8768 28.7614 27.1741 28.4641 27.1741 28.0973C27.1741 27.7306 26.8768 27.4333 26.5101 27.4333Z"
                    fill="#305C2D" />
                <path
                    d="M43.4997 19C40.8085 19 38.619 21.1895 38.619 23.8807C38.619 26.572 40.8085 28.7614 43.4997 28.7614C46.191 28.7614 48.3805 26.572 48.3805 23.8807C48.3805 21.1895 46.191 19 43.4997 19ZM43.4997 27.4334C41.5408 27.4334 39.9471 25.8397 39.9471 23.8807C39.9471 21.9217 41.5408 20.3281 43.4997 20.3281C45.4587 20.3281 47.0524 21.9217 47.0524 23.8807C47.0524 25.8397 45.4587 27.4334 43.4997 27.4334Z"
                    fill="#305C2D" />
                <path
                    d="M36.0316 26.3929C34.6465 27.778 32.3925 27.778 31.0074 26.3929C29.6223 25.0078 29.6223 22.7539 31.0074 21.3687C32.3925 19.9835 34.6464 19.9835 36.0316 21.3687C36.2909 21.628 36.7114 21.628 36.9708 21.3687C37.2301 21.1094 37.2301 20.6889 36.9708 20.4295C35.0678 18.5266 31.9714 18.5266 30.0684 20.4295C28.1654 22.3325 28.1654 25.429 30.0684 27.3319C31.0198 28.2834 32.2697 28.7592 33.5196 28.7592C34.7695 28.7592 36.0193 28.2834 36.9708 27.332C37.2301 27.0727 37.2301 26.6522 36.9708 26.3928C36.7114 26.1335 36.291 26.1335 36.0316 26.3929Z"
                    fill="#305C2D" />
                <path
                    d="M35.0045 30.3129C34.6377 30.3129 34.3404 30.6102 34.3404 30.9769V32.8548C34.3404 33.2216 34.6377 33.5189 35.0045 33.5189C35.3712 33.5189 35.6685 33.2216 35.6685 32.8548V30.9769C35.6685 30.6102 35.3712 30.3129 35.0045 30.3129Z"
                    fill="#305C2D" />
                <path
                    d="M38.8797 32.1421C38.6203 31.8828 38.1999 31.8828 37.9406 32.1421L36.5865 33.4962C36.3272 33.7555 36.3272 34.176 36.5865 34.4353C36.7162 34.565 36.8862 34.6298 37.0561 34.6298C37.226 34.6298 37.396 34.5649 37.5256 34.4353L38.8797 33.0813C39.139 32.8219 39.1391 32.4014 38.8797 32.1421Z"
                    fill="#305C2D" />
                <path
                    d="M33.4157 33.4765L32.0594 32.1201C31.8 31.8608 31.3796 31.8609 31.1203 32.1201C30.8609 32.3795 30.8609 32.7999 31.1203 33.0593L32.4765 34.4156C32.6062 34.5453 32.7762 34.6101 32.9461 34.6101C33.116 34.6101 33.286 34.5452 33.4157 34.4156C33.675 34.1563 33.675 33.7358 33.4157 33.4765Z"
                    fill="#305C2D" />
            </g>
        </symbol>
        <symbol id="ecoBulb" viewBox="0 0 69 69" fill="#F4F4F4">
            <circle cx="34.5" cy="34.5" r="33.5" stroke="#305C2D" stroke-width="2" />
            <rect y="33" width="69" height="3" fill="#F4F4F4" />
            <rect x="36" width="69" height="3" transform="rotate(90 36 0)" fill="#F4F4F4" />
            <g>
                <path
                    d="M38.0664 16.4764C37.9477 16.1881 37.6656 16 37.3541 16C31.5698 16 26.2927 17.8238 23.2402 20.8763C21.9035 22.2129 21.1667 23.9904 21.1667 25.8805C21.1667 27.7706 21.9035 29.5481 23.2402 30.8848C24.5768 32.2214 26.3528 32.9583 28.2444 32.9583C30.1345 32.9583 31.912 32.2214 33.2487 30.8863C34.5699 29.5666 34.9707 27.1293 35.3947 24.55C35.851 21.7689 36.3258 18.8921 37.8999 17.3165C38.1189 17.0961 38.1851 16.7646 38.0664 16.4764ZM33.8715 24.2988C33.4892 26.6267 33.1284 28.8266 32.1588 29.7948C30.0667 31.8853 26.4222 31.8853 24.3302 29.7948C23.2834 28.7495 22.7083 27.3589 22.7083 25.8805C22.7083 24.4021 23.2833 23.0115 24.3302 21.9662C26.8261 19.4687 31.0272 17.8793 35.774 17.5895C34.6624 19.4965 34.2461 22.0186 33.8715 24.2988Z"
                    fill="#305C2D" />
                <path
                    d="M29.6459 22.1666C28.411 22.1666 21.1667 28.2655 21.1667 35.2708C21.1667 35.6963 21.5121 36.0416 21.9376 36.0416C22.3631 36.0416 22.7084 35.6963 22.7084 35.2708C22.7084 29.2675 28.8258 24.1369 29.7908 23.6944C30.1469 23.6265 30.4167 23.3136 30.4167 22.9374C30.4166 22.512 30.0714 22.1666 29.6459 22.1666Z"
                    fill="#305C2D" />
                <path
                    d="M37.3541 45.2916H31.1875C30.762 45.2916 30.4166 45.637 30.4166 46.0625C30.4166 46.488 30.762 46.8333 31.1875 46.8333H37.3541C37.7796 46.8333 38.125 46.488 38.125 46.0625C38.125 45.637 37.7796 45.2916 37.3541 45.2916Z"
                    fill="#305C2D" />
                <path
                    d="M37.3541 48.375H31.1875C30.762 48.375 30.4166 48.7204 30.4166 49.1459C30.4166 49.5714 30.762 49.9167 31.1875 49.9167H37.3541C37.7796 49.9167 38.125 49.5714 38.125 49.1459C38.125 48.7204 37.7796 48.375 37.3541 48.375Z"
                    fill="#305C2D" />
                <path
                    d="M35.8125 51.4585H32.7291C32.3036 51.4585 31.9583 51.8039 31.9583 52.2294C31.9583 52.6549 32.3036 53.0002 32.7291 53.0002H35.8125C36.238 53.0002 36.5834 52.6549 36.5834 52.2294C36.5834 51.8038 36.238 51.4585 35.8125 51.4585Z"
                    fill="#305C2D" />
                <path
                    d="M40.436 17.8099C40.0799 17.5863 39.602 17.6896 39.3722 18.0504C39.1441 18.4096 39.252 18.886 39.6112 19.1141C42.5419 20.9657 44.2916 24.1246 44.2916 27.5625C44.2916 30.3652 43.157 32.966 41.0973 34.8854C40.4837 35.4573 40.0829 36.1557 39.9395 36.9003C39.0223 41.6918 37.8259 42.2083 37.3542 42.2083H31.1875C30.7142 42.2083 29.5164 41.6872 28.596 36.8649C28.4604 36.1403 28.0718 35.4651 27.4706 34.9086C27.4182 34.8592 27.3704 34.8053 27.3226 34.7513L27.1669 34.5833C26.8694 34.2811 26.3806 34.2734 26.0769 34.5725C25.7732 34.87 25.767 35.3588 26.0645 35.6625L26.174 35.7812C26.2557 35.8722 26.3359 35.9616 26.4238 36.0402C26.6704 36.2684 26.9849 36.6461 27.0805 37.1502C27.3919 38.7827 28.34 43.75 31.1875 43.75H37.3542C40.197 43.75 41.142 38.8136 41.4534 37.1902C41.5552 36.6568 41.8866 36.2559 42.1472 36.0123C44.4905 33.8324 45.8333 30.7522 45.8333 27.5625C45.8334 23.5927 43.8153 19.9466 40.436 17.8099Z"
                    fill="#305C2D" />
            </g>
        </symbol>
        <symbol id="scrollDown" viewBox="0 0 316 63" fill="white">
            <path d="M241.496 30.8421C259.159 45.111 293.018 61.5749 316 62.5142H158V0.0140802C177.911 -0.203933 205.5 1.76318 241.496 30.8421Z" fill="white"/>
            <path d="M74.5041 30.8421C56.528 44.5226 22.9818 61.5749 0 62.5142H158V0.0140802C137.447 0.0140549 104.5 8.01404 74.5041 30.8421Z" fill="white"/>
        </symbol>
        <symbol id="scrollArrow" viewBox="0 0 15 22">
            <path d="M14.6609 14.6552C14.957 14.3691 14.957 13.893 14.6609 13.5969C14.3749 13.3108 13.8987 13.3108 13.6133 13.5969L8.24691 18.9632L8.24691 1.25494C8.24624 0.842142 7.91814 0.514038 7.50534 0.514038C7.09254 0.514038 6.75377 0.842142 6.75377 1.25494L6.75377 18.9632L1.3974 13.5969C1.10131 13.3108 0.624489 13.3108 0.339065 13.5969C0.042971 13.893 0.042971 14.3698 0.339065 14.6552L6.97584 21.292C7.26193 21.5881 7.73808 21.5881 8.0235 21.292L14.6609 14.6552Z" fill="#305C2D"/>
        </symbol>
    </svg>